<svg width="46" height="45" viewBox="0 0 46 45" fill="none" xmlns="http://www.w3.org/2000/svg">
<path fill-rule="evenodd" clip-rule="evenodd" d="M44.082 1.26398L39.832 6.76398Z" fill="#FB3640"/>
<path d="M44.082 1.26398L39.832 6.76398" stroke="#FB3640" stroke-width="2.5" stroke-linecap="round"/>
<path fill-rule="evenodd" clip-rule="evenodd" d="M44.0598 0.0111694C44.5132 0.0231694 44.8215 0.200178 45.0405 0.459778C43.0136 2.86868 42.6721 3.25141 39.905 6.68121C38.8855 8.00021 37.8234 7.31851 38.843 5.99951L43.093 0.499512C43.322 0.193912 43.6781 0.0214694 44.0598 0.0111694Z" fill="#FB3640" fill-opacity="0.298039"/>
<path fill-rule="evenodd" clip-rule="evenodd" d="M45.049 0.47229C45.1729 0.62019 45.6102 1.2769 45.0715 2.0285L40.8215 7.5285C39.8019 8.8475 39.6716 6.9162 39.6716 6.9162C39.6716 6.9162 43.4061 2.40619 45.049 0.47229Z" fill="black" fill-opacity="0.2"/>
<path fill-rule="evenodd" clip-rule="evenodd" d="M44.3331 0.246094C44.7713 0.246094 45.293 0.387678 45.1573 1.04468C45.0538 1.54628 40.4965 7.11908 40.4965 7.11908C39.4769 8.43808 38.003 7.79542 39.0225 6.47662L43.2569 1.00391C43.5172 0.713906 43.8654 0.260294 44.3331 0.246094Z" fill="#FB3640"/>
<path fill-rule="evenodd" clip-rule="evenodd" d="M1.26025 1.26398L5.51027 6.76398Z" fill="#FB3640"/>
<path d="M1.26025 1.26398L5.51027 6.76398" stroke="#FB3640" stroke-width="2.5" stroke-linecap="round"/>
<path fill-rule="evenodd" clip-rule="evenodd" d="M1.28251 0.0111694C0.829044 0.0231694 0.520808 0.200178 0.301758 0.459778C2.3287 2.86868 2.67017 3.25141 5.43726 6.68121C6.45679 8.00021 7.51887 7.31851 6.49933 5.99951L2.24931 0.499512C2.02032 0.193912 1.66423 0.0214694 1.28251 0.0111694Z" fill="#FB3640" fill-opacity="0.298039"/>
<path fill-rule="evenodd" clip-rule="evenodd" d="M0.293287 0.47229C0.169393 0.62019 -0.267892 1.2769 0.270797 2.0285L4.52082 7.5285C5.54036 8.8475 5.6707 6.9162 5.6707 6.9162C5.6707 6.9162 1.93623 2.40619 0.293287 0.47229Z" fill="black" fill-opacity="0.2"/>
<path fill-rule="evenodd" clip-rule="evenodd" d="M1.0092 0.246094C0.571018 0.246094 0.0493291 0.387678 0.184973 1.04468C0.288535 1.54628 4.84582 7.11908 4.84582 7.11908C5.86536 8.43808 7.33931 7.79542 6.31977 6.47662L2.08537 1.00391C1.82513 0.713906 1.47685 0.260294 1.0092 0.246094Z" fill="#FB3640"/>
<path d="M38.6716 4.76398H6.6714C5.01454 4.76398 3.67139 6.10712 3.67139 7.76398V14.764C3.67139 16.4208 5.01454 17.764 6.6714 17.764H38.6716C40.3284 17.764 41.6716 16.4208 41.6716 14.764V7.76398C41.6716 6.10712 40.3284 4.76398 38.6716 4.76398Z" fill="#FB3640"/>
<path d="M38.6716 7.76398H6.6714C5.01454 7.76398 3.67139 9.10712 3.67139 10.764V14.764C3.67139 16.4208 5.01454 17.764 6.6714 17.764H38.6716C40.3284 17.764 41.6716 16.4208 41.6716 14.764V10.764C41.6716 9.10712 40.3284 7.76398 38.6716 7.76398Z" fill="black" fill-opacity="0.2"/>
<path d="M38.6716 4.76398H6.6714C5.01454 4.76398 3.67139 6.10712 3.67139 7.76398V11.764C3.67139 13.4208 5.01454 14.764 6.6714 14.764H38.6716C40.3284 14.764 41.6716 13.4208 41.6716 11.764V7.76398C41.6716 6.10712 40.3284 4.76398 38.6716 4.76398Z" fill="#FB3640" fill-opacity="0.298039"/>
<path d="M38.6716 5.76398H6.6714C5.01454 5.76398 3.67139 6.90048 3.67139 8.30243V14.2255C3.67139 15.6275 5.01454 16.764 6.6714 16.764H38.6716C40.3284 16.764 41.6716 15.6275 41.6716 14.2255V8.30243C41.6716 6.90048 40.3284 5.76398 38.6716 5.76398Z" fill="#FB3640"/>
<path d="M38.6716 18.764H6.6714C5.01454 18.764 3.67139 20.1071 3.67139 21.764V41.764C3.67139 43.4208 5.01454 44.764 6.6714 44.764H38.6716C40.3284 44.764 41.6716 43.4208 41.6716 41.764V21.764C41.6716 20.1071 40.3284 18.764 38.6716 18.764Z" fill="#FB3640"/>
<path d="M38.6716 31.764H6.6714C5.01454 31.764 3.67139 33.1071 3.67139 34.764V41.764C3.67139 43.4208 5.01454 44.764 6.6714 44.764H38.6716C40.3284 44.764 41.6716 43.4208 41.6716 41.764V34.764C41.6716 33.1071 40.3284 31.764 38.6716 31.764Z" fill="black" fill-opacity="0.2"/>
<path d="M38.6716 18.764H6.6714C5.01454 18.764 3.67139 20.1071 3.67139 21.764V28.764C3.67139 30.4208 5.01454 31.764 6.6714 31.764H38.6716C40.3284 31.764 41.6716 30.4208 41.6716 28.764V21.764C41.6716 20.1071 40.3284 18.764 38.6716 18.764Z" fill="white" fill-opacity="0.2"/>
<path d="M38.6716 19.764H6.6714C5.01454 19.764 3.67139 21.0039 3.67139 22.5333V40.9948C3.67139 42.5242 5.01454 43.764 6.6714 43.764H38.6716C40.3284 43.764 41.6716 42.5242 41.6716 40.9948V22.5333C41.6716 21.0039 40.3284 19.764 38.6716 19.764Z" fill="#FB3640"/>
<path d="M22.6709 25.5139C19.7903 25.5139 17.3511 27.4986 16.6377 30.1643H19.8506C20.4049 29.179 21.4457 28.5139 22.6709 28.5139C24.4836 28.5139 25.9209 29.9512 25.9209 31.7639C25.9209 33.5766 24.4836 35.0139 22.6709 35.0139C21.3635 35.0139 20.2597 34.2612 19.7412 33.1643H16.5869C17.2292 35.9301 19.7188 38.0139 22.6709 38.0139C26.105 38.0139 28.921 35.1979 28.921 31.7639C28.921 28.3299 26.105 25.5139 22.6709 25.5139Z" fill="black" fill-opacity="0.19"/>
<path d="M22.6711 41.3139C27.9455 41.3139 32.2212 37.0382 32.2212 31.7639C32.2212 26.4896 27.9455 22.2139 22.6711 22.2139C17.3968 22.2139 13.1211 26.4896 13.1211 31.7639C13.1211 37.0382 17.3968 41.3139 22.6711 41.3139Z" stroke="black" stroke-opacity="0.19" stroke-width="1.9" stroke-linecap="round"/>
<path d="M13.0464 15.264C14.9104 15.264 16.4214 13.5291 16.4214 11.389C16.4214 9.24887 14.9104 7.51398 13.0464 7.51398C11.1824 7.51398 9.67139 9.24887 9.67139 11.389C9.67139 13.5291 11.1824 15.264 13.0464 15.264Z" fill="black" fill-opacity="0.2"/>
<path d="M32.5464 15.264C34.4104 15.264 35.9214 13.5291 35.9214 11.389C35.9214 9.24887 34.4104 7.51398 32.5464 7.51398C30.6824 7.51398 29.1714 9.24887 29.1714 11.389C29.1714 13.5291 30.6824 15.264 32.5464 15.264Z" fill="black" fill-opacity="0.2"/>
<path fill-rule="evenodd" clip-rule="evenodd" d="M1.28463 0.000476449C1.04645 -0.00609949 0.811346 0.0555116 0.607018 0.178089C0.40269 0.300666 0.237649 0.479129 0.131336 0.692371C0.025022 0.905613 -0.018136 1.14475 0.00694628 1.3817C0.0320285 1.61865 0.124306 1.84352 0.272908 2.02977L3.87644 6.6939C3.74945 7.027 3.67332 7.38541 3.67332 7.76421V11.7642V14.6294V14.7642C3.67332 16.4262 5.01132 17.7642 6.67333 17.7642H38.6735C40.3355 17.7642 41.6735 16.4262 41.6735 14.7642V10.7642V7.89897V7.76421C41.6735 7.38391 41.5964 7.02419 41.4684 6.68999L45.07 2.02977C45.2204 1.84104 45.313 1.61281 45.3366 1.37261C45.3601 1.13241 45.3137 0.890501 45.2028 0.676136C45.0919 0.46177 44.9213 0.28408 44.7116 0.164539C44.5019 0.0449979 44.2621 -0.0112646 44.0212 0.00249061C43.8393 0.0127439 43.6618 0.0626474 43.5012 0.14867C43.3406 0.234692 43.2008 0.354741 43.0915 0.500476L39.6598 4.94188C39.3496 4.83398 39.0214 4.76421 38.6735 4.76421H6.67333C6.32476 4.76421 5.99576 4.83318 5.68504 4.94188L2.25143 0.500476C2.1384 0.349644 1.99272 0.226344 1.8253 0.139759C1.65788 0.0531734 1.47305 0.00554411 1.28463 0.000476449ZM6.67333 18.7642C6.46558 18.7642 6.2635 18.7851 6.06786 18.8251C4.69834 19.1012 3.67332 20.295 3.67332 21.7353V21.7643V41.5436V41.5726V41.764C3.67332 43.426 5.01132 44.764 6.67333 44.764H38.6735C40.3355 44.764 41.6735 43.426 41.6735 41.764V21.764V21.735C41.6735 20.2947 40.6485 19.101 39.279 18.8249C39.0833 18.7859 38.8812 18.7638 38.6735 18.7638L6.67333 18.7642Z" fill="url(#paint0_radial_65_87)"/>
<defs>
<radialGradient id="paint0_radial_65_87" cx="0" cy="0" r="1" gradientUnits="userSpaceOnUse" gradientTransform="translate(0.00251771 0.00134226) rotate(90) scale(44.7702 48.0002)">
<stop stop-color="white" stop-opacity="0.0980392"/>
<stop offset="1" stop-color="white" stop-opacity="0"/>
</radialGradient>
</defs>
</svg>
